<svg width="83" height="62" viewBox="0 0 83 62" fill="none" xmlns="http://www.w3.org/2000/svg">
<path fill-rule="evenodd" clip-rule="evenodd" d="M6.449 48.362H3.87C1.733 48.362 0 46.629 0 44.492V17.326C0 15.189 1.733 13.456 3.87 13.456H6.025C8.162 13.456 9.895 15.189 9.895 17.326V44.916C9.895 46.819 8.352 48.362 6.449 48.362Z" fill="#1890FF"/>
<path fill-rule="evenodd" clip-rule="evenodd" d="M60.804 61.818H58.225C56.088 61.818 54.355 60.085 54.355 57.948V3.87C54.355 1.733 56.088 0 58.225 0H60.38C62.517 0 64.25 1.733 64.25 3.87V58.372C64.25 60.275 62.707 61.818 60.804 61.818Z" fill="#1890FF"/>
<path fill-rule="evenodd" clip-rule="evenodd" d="M24.5673 61.818H21.9883C19.8513 61.818 18.1183 60.085 18.1183 57.948V3.87C18.1183 1.733 19.8513 0 21.9883 0H24.1433C26.2803 0 28.0133 1.733 28.0133 3.87V58.372C28.0133 60.275 26.4703 61.818 24.5673 61.818Z" fill="#1890FF"/>
<path fill-rule="evenodd" clip-rule="evenodd" d="M78.9223 48.362H76.3433C74.2063 48.362 72.4733 46.629 72.4733 44.492V17.326C72.4733 15.189 74.2063 13.456 76.3433 13.456H78.4983C80.6353 13.456 82.3683 15.189 82.3683 17.326V44.916C82.3683 46.819 80.8253 48.362 78.9223 48.362Z" fill="#1890FF"/>
<path fill-rule="evenodd" clip-rule="evenodd" d="M42.6856 49.4567H40.1066C37.9696 49.4567 36.2366 47.7237 36.2366 45.5867V19.1917C36.2366 17.0537 37.9696 15.3217 40.1066 15.3217H42.2616C44.3986 15.3217 46.1316 17.0537 46.1316 19.1917V46.0107C46.1316 47.9137 44.5886 49.4567 42.6856 49.4567Z" fill="#1890FF"/>
</svg>
